C:\Users\r0593348\3dpredictsim\Results\Batchsim_tmt_linear_v2\Pog_s1_tmt_aCst_d05_k500_ig24_pas_GRF.mot
nRows=10
nColumns=19

name C:\Users\r0593348\3dpredictsim\Results\Batchsim_tmt_linear_v2\Pog_s1_tmt_aCst_d05_k500_ig24_pas_GRF.mot
datacolumns 19
datarows 10
range 0.0000000000 0.0972504157
endheader
time 	ground_force_vx	ground_force_vy	ground_force_vz	ground_force_px	ground_force_py	ground_force_pz	1_ground_force_vx	1_ground_force_vy	1_ground_force_vz	1_ground_force_px	1_ground_force_py	1_ground_force_pz	ground_torque_x	ground_torque_y	ground_torque_z	1_ground_torque_x	1_ground_torque_y	1_ground_torque_z
        0.0000000000	      -76.5325044268	       58.7717667530	       16.6865745855	        0.1635317495	        0.0000000000	        0.0453130993	      118.0601017604	      490.6046633488	        2.9791990332	       -0.3507003054	        0.0000000000	       -0.0480615986	        0.0000000000	        0.0000000000	        0.0000000000	        0.0000000000	        0.0000000000	        0.0000000000	
        0.0108056017	     -132.8412648017	      134.7349556389	       43.8000311385	        0.1715940883	        0.0000000000	        0.0437821136	       86.3125360627	      395.0279920731	       -2.6240646937	       -0.3381214402	        0.0000000000	       -0.0463765854	        0.0000000000	        0.0000000000	        0.0000000000	        0.0000000000	        0.0000000000	        0.0000000000	
        0.0216112035	      -60.3533158340	      279.4631493309	       19.2805415704	        0.1780347843	        0.0000000000	        0.0422946146	       49.2510048689	      288.9802459829	       -6.3683259781	       -0.3175456746	        0.0000000000	       -0.0432188090	        0.0000000000	        0.0000000000	        0.0000000000	        0.0000000000	        0.0000000000	        0.0000000000	
        0.0324168052	      -59.4559743571	      452.7446141932	        0.7072587529	        0.1825019475	        0.0000000000	        0.0427531947	       18.4667015143	      198.0361334882	       -6.6077320099	       -0.2877061701	        0.0000000000	       -0.0376776343	        0.0000000000	        0.0000000000	        0.0000000000	        0.0000000000	        0.0000000000	        0.0000000000	
        0.0432224070	      -94.5343801098	      683.5760095864	      -10.1674796227	        0.1924643786	        0.0000000000	        0.0457236511	        0.3806701508	      148.2295289605	      -11.1760566424	       -0.2661097988	        0.0000000000	       -0.0319106869	        0.0000000000	        0.0000000000	        0.0000000000	        0.0000000000	        0.0000000000	        0.0000000000	
        0.0540280087	     -123.6477921216	      852.2997998535	      -15.7458800961	        0.1998011209	        0.0000000000	        0.0478877943	       -1.9989253295	      121.0694187002	      -13.5139706271	       -0.2663730688	        0.0000000000	       -0.0323564301	        0.0000000000	        0.0000000000	        0.0000000000	        0.0000000000	        0.0000000000	        0.0000000000	
        0.0648336105	     -129.6958879700	      910.0740105866	      -17.5971315800	        0.2048480744	        0.0000000000	        0.0492411886	       -3.1112131511	       86.1781858218	      -14.5400792509	       -0.2657388975	        0.0000000000	       -0.0325625806	        0.0000000000	        0.0000000000	        0.0000000000	        0.0000000000	        0.0000000000	        0.0000000000	
        0.0756392122	     -122.1527626219	      890.0062773281	      -16.7253964475	        0.2087691953	        0.0000000000	        0.0501791339	       -6.4469488566	       47.9455041009	      -12.3189557025	       -0.2653825644	        0.0000000000	       -0.0327196827	        0.0000000000	        0.0000000000	        0.0000000000	        0.0000000000	        0.0000000000	        0.0000000000	
        0.0864448140	     -110.4803702759	      848.5858883029	      -16.0602880610	        0.2124365240	        0.0000000000	        0.0508654152	       -6.8596606511	       10.2249896279	       -3.0370120760	       -0.2667977795	        0.0000000000	       -0.0320862429	        0.0000000000	        0.0000000000	        0.0000000000	        0.0000000000	        0.0000000000	        0.0000000000	
        0.0972504157	      -98.5386226440	      815.0816451009	      -15.7560547318	        0.2165987242	        0.0000000000	        0.0515780709	        0.0026080217	       -0.0023528105	        0.0001011235	        0.0000000000	        0.0000000000	        0.0000000000	        0.0000000000	        0.0000000000	        0.0000000000	        0.0000000000	        0.0000000000	        0.0000000000	
